<?xml version="1.0" standalone="no"?>
<!DOCTYPE svg PUBLIC "-//W3C//DTD SVG 20010904//EN"
 "http://www.w3.org/TR/2001/REC-SVG-20010904/DTD/svg10.dtd">
<svg version="1.0" xmlns="http://www.w3.org/2000/svg"
 width="685.000000pt" height="645.000000pt" viewBox="0 0 685.000000 645.000000"
 preserveAspectRatio="xMidYMid meet">

<g transform="translate(0.000000,645.000000) scale(0.100000,-0.100000)"
fill="#000000" stroke="none">
<path d="M3117 6139 c-993 -96 -1860 -664 -2354 -1542 -239 -425 -373 -946
-373 -1447 0 -797 318 -1559 886 -2125 438 -435 1003 -728 1604 -830 258 -43
501 -57 581 -33 52 15 117 73 140 122 22 49 25 143 6 189 -21 48 -64 95 -111
119 -33 17 -69 23 -191 29 -194 11 -303 24 -444 55 -377 81 -717 240 -1030
481 -126 98 -364 340 -463 473 -265 356 -428 754 -489 1200 -17 122 -18 514
-1 640 119 896 700 1659 1532 2013 193 82 435 147 660 178 122 17 514 17 640
1 218 -29 495 -106 691 -192 148 -65 243 -118 384 -211 605 -403 1007 -1037
1110 -1753 25 -170 30 -439 11 -614 -65 -604 -326 -1143 -757 -1558 -109 -106
-146 -138 -249 -214 -119 -89 -140 -109 -161 -158 -34 -79 -22 -178 31 -245
65 -83 201 -108 293 -53 140 81 376 282 530 451 633 693 907 1608 756 2525
-208 1262 -1207 2261 -2469 2469 -246 40 -536 52 -763 30z"/>
<path d="M2935 5114 c-11 -2 -45 -9 -75 -15 -77 -15 -225 -89 -286 -143 -65
-57 -116 -134 -143 -214 -20 -58 -21 -82 -21 -495 l0 -434 -127 -6 c-147 -8
-209 -22 -311 -72 -171 -85 -293 -237 -342 -426 -18 -69 -20 -114 -20 -720 0
-610 1 -650 20 -723 30 -119 82 -209 175 -301 92 -93 182 -145 301 -175 75
-19 115 -20 1236 -20 1139 0 1161 0 1240 21 221 56 380 204 462 428 l31 86 0
680 0 680 -27 78 c-74 218 -242 379 -463 444 -55 16 -135 18 -977 21 l-918 3
0 414 c0 232 4 424 9 438 29 75 138 147 252 167 42 7 207 10 479 8 408 -3 416
-3 457 -25 53 -29 89 -76 102 -133 6 -25 11 -124 11 -221 0 -166 1 -178 23
-210 62 -93 189 -87 239 12 15 29 18 62 18 219 0 211 -12 285 -60 380 -65 128
-201 225 -351 249 -60 10 -887 14 -934 5z m1539 -1594 c129 -21 233 -100 289
-218 l32 -67 0 -646 0 -645 -38 -76 c-39 -80 -99 -143 -167 -178 -81 -41 -100
-41 -1280 -38 -1108 3 -1136 3 -1185 23 -72 29 -166 121 -201 197 l-29 63 0
650 c0 649 0 650 22 705 45 111 167 211 281 230 70 11 2205 12 2276 0z"/>
<path d="M3286 3299 c-138 -32 -269 -136 -331 -262 -93 -188 -58 -412 87 -554
70 -70 89 -82 180 -119 l76 -31 2 -167 c1 -176 5 -196 47 -215 63 -29 128 7
134 74 1 11 1 113 0 227 -1 201 -2 208 -24 234 -19 21 -36 29 -88 36 -222 30
-340 238 -245 433 115 233 454 213 546 -32 26 -69 25 -134 -1 -209 -26 -76
-16 -122 34 -149 29 -15 39 -16 70 -6 29 10 41 22 62 66 106 215 7 506 -211
622 -108 57 -233 77 -338 52z"/>
</g>
</svg>
